# xmcd
#
# Track frame offsets:
#	150
#	14398
#	29325
#	44197
#	56574
#	68565
#	82720
#	96157
#	109122
#	122643
#	137090
#	150203
#	164980
#	177397
#	191866
#	204035
#	216372
#	229663
#	244556
#	259231
#	273937
#	288526
#	300587
#	315543
#	329860
#
# Disc length: 4575 seconds
#
# Revision: 1
# Processed by: cddbd v1.5.1PL0 Copyright (c) Steve Scherf et al.
# Submitted via: audiograbber 1.83.01
#
DISCID=6b11dd19
DTITLE=Various Artist - The Paramount Masters - CD 3/4
DYEAR=1900
DGENRE=Blues
TTITLE0=Bo Weevil Jackson - Some Scream High Yellow
TTITLE1=Jabo Williams - Jab Blues
TTITLE2=Freddie Brown - Raised In the Alley Blues
TTITLE3=George 'Bullet' Williams - Frisco Leaving Birmingham
TTITLE4=Blind Joe Reynolds - Ninety-Nine Blues
TTITLE5=Roosevelt Sykes - Conjur Man Blues
TTITLE6=Sweet Papa Stovepipe - Mama's Angel Child
TTITLE7=Lottie Beaman - Honey Blues
TTITLE8=Bobby Grant - Lonesome Atlanta Blues
TTITLE9=Robert Peeples - Fat, Greasy Baby
TTITLE10=Little Brother Montgomery - No Special Rider Blues
TTITLE11=Blind Roosevelt Graves - New York Blues
TTITLE12=Henry Townsend - Doctor, Oh, Doctor
TTITLE13=Bogus Ben Covington - I Heard the Voice of a Pork Chop
TTITLE14=Ruby Paul - Red Letter Blues
TTITLE15=Piano Kid Edwards - Piano Kid Special
TTITLE16=Famous Hokum Boys - Where Did You Stay, Last Nighr
TTITLE17=King Solomon Hill - The Gone Dead Train
TTITLE18=Wesley Wallace - Fanny Lee Blues
TTITLE19=Washboard Walter - Narrow Face Blues
TTITLE20=Geechie Wiley - Pick Poor Robin Clean
TTITLE21=George Hannah - The Boy In the Boat
TTITLE22=Marshall Owens - Texas Blues
TTITLE23=James 'Boodle It' Wiggins - Evil Woman Blues
TTITLE24=Roosevelt Sykes - Three, Six and Nine
EXTD=JSP7723C
EXTT0=
EXTT1=
EXTT2=
EXTT3=
EXTT4=
EXTT5=
EXTT6=
EXTT7=
EXTT8=
EXTT9=
EXTT10=
EXTT11=
EXTT12=
EXTT13=
EXTT14=
EXTT15=
EXTT16=
EXTT17=
EXTT18=
EXTT19=
EXTT20=
EXTT21=
EXTT22=
EXTT23=
EXTT24=
PLAYORDER=
